<svg width="12" height="16" viewBox="0 0 12 16" fill="none" xmlns="http://www.w3.org/2000/svg">
<path d="M4.70877 6.77106L5.9489 5.58341C6.28882 5.25817 6.52781 4.83436 6.63521 4.36639C6.7426 3.89841 6.71349 3.40763 6.55161 2.95704L6.04954 1.55696C5.84402 0.985152 5.43727 0.516622 4.91216 0.246839C4.38705 -0.0229448 3.78311 -0.0736795 3.2234 0.104973C1.27644 0.726562 -0.286439 2.54788 0.0444155 4.82301C0.275782 6.41139 0.809083 8.43185 1.98558 10.5416C2.96277 12.301 4.24194 13.8578 5.75918 15.1342C7.48055 16.5765 9.77802 16.084 11.2703 14.6333C11.6973 14.2184 11.9565 13.6493 11.995 13.0419C12.0335 12.4345 11.8484 11.8346 11.4774 11.3648L10.5612 10.2037C10.2681 9.83252 9.87542 9.56115 9.43351 9.42438C8.99161 9.28761 8.52062 9.29168 8.08094 9.43605L6.4741 9.9635C6.05923 9.5172 5.69582 9.02179 5.3913 8.48737C5.09715 7.94708 4.86791 7.37105 4.70877 6.77227V6.77106Z" fill="currentColor"/>
</svg>
