<svg width="226" height="38" viewBox="0 0 226 38" fill="none" xmlns="http://www.w3.org/2000/svg">
<path d="M218.217 12.1729H214.758L212.81 24.3376H216.269L217.108 19.107L220.011 24.3376H224.175L220.353 18.1509L226 12.1729H221.944L217.403 17.2828L218.217 12.1729ZM199.094 24.3376H202.554L203.327 19.4714H207.53L206.757 24.3376H210.216L212.165 12.1729H208.706L208.004 16.5525H203.804L204.508 12.1729H201.049L199.094 24.3376ZM192.72 15.0747L193.465 19.5578H190.641L192.72 15.0747ZM184.746 24.3376H188.49L189.554 22.2346H193.753L194.102 24.3376H197.738L195.292 12.1729H191.092L184.746 24.3376ZM177.723 21.9045L178.131 19.3507H179.508C179.95 19.3035 180.396 19.3887 180.789 19.5953C180.923 19.7066 181.028 19.849 181.093 20.0097C181.158 20.1704 181.182 20.3444 181.162 20.5164C181.167 20.7457 181.108 20.9719 180.992 21.1709C180.877 21.37 180.708 21.5342 180.505 21.6461C180.067 21.8532 179.582 21.9429 179.097 21.9061L177.723 21.9045ZM173.878 24.3376H179.366C180.542 24.3961 181.71 24.1184 182.73 23.538C183.304 23.1864 183.78 22.6981 184.113 22.1181C184.445 21.538 184.625 20.8849 184.634 20.2188C184.674 19.7492 184.602 19.2769 184.424 18.8396C184.245 18.4023 183.965 18.0124 183.606 17.701C182.716 17.1111 181.649 16.8356 180.58 16.9193H178.516L178.811 15.095H184.476L184.95 12.1753H175.824L173.878 24.3376Z" fill="white"/>
<path d="M14.5432 37.0632C11.4868 37.0974 8.47985 36.3033 5.85104 34.7679C3.31361 33.2584 1.28314 31.0473 0.0124173 28.41L0 28.3839L0.023179 28.366L5.6921 23.9823C6.02464 24.9168 6.49913 25.7962 7.0994 26.5907L4.23596 28.8257C5.49499 30.4565 7.13107 31.7679 9.00826 32.651C10.8855 33.534 12.9496 33.9633 15.0291 33.903C19.3702 33.827 23.5408 32.2264 26.7891 29.3898C30.1274 26.61 32.3663 22.7625 33.1137 18.521C34.3703 11.2078 29.6882 4.28996 22.3172 3.32894C21.5398 3.20898 20.754 3.1493 19.9671 3.15043C17.7147 3.16179 15.4871 3.61311 13.4132 4.47825C11.2271 5.39303 9.22329 6.68272 7.4951 8.28728L9.67475 10.5011C8.83778 11.2664 8.09283 12.1238 7.45453 13.0565L3.20532 8.6549L3.1838 8.63289L3.20367 8.60843C5.3332 5.97027 8.01307 3.81297 11.0622 2.28234C13.9692 0.805611 17.1886 0.0237343 20.4596 1.8797e-05C21.4078 -0.00133408 22.3547 0.0703428 23.2916 0.214394C27.0181 0.751233 30.4208 2.59964 32.8695 5.41726C34.3701 7.23116 35.4551 9.34285 36.0502 11.6079C36.6453 13.8729 36.7364 16.2377 36.3174 18.5406C35.4174 23.6487 32.7214 28.2824 28.7014 31.6305C24.7891 35.0471 19.7659 36.9753 14.5374 37.0673" fill="white"/>
<path d="M16.2669 26.2013C17.4531 26.1952 18.6249 25.9454 19.7074 25.4677C20.8433 24.9708 21.8729 24.2657 22.7413 23.39C22.7844 23.3459 22.8796 23.2269 22.9706 23.1145L23.1014 22.9514H11.8637C11.2142 22.1071 10.8295 21.0942 10.757 20.0374H28.1511L28.1371 20.0839C27.2936 22.7295 25.6307 25.049 23.3812 26.7173C21.2063 28.3898 18.5362 29.3171 15.7769 29.3582C15.2225 29.3594 14.6689 29.3174 14.1212 29.2327C11.9439 28.9192 9.95581 27.8393 8.52515 26.1931C7.10805 24.5168 6.34486 22.3976 6.37281 20.2167C6.37357 19.6511 6.41924 19.0864 6.5094 18.5278C7.03553 15.5443 8.61026 12.8379 10.9581 10.882C13.2437 8.88734 16.1777 7.762 19.2314 7.7088C20.4805 7.68473 21.722 7.9061 22.8833 8.35998C24.0446 8.81386 25.1023 9.49114 25.9947 10.3522C26.865 11.2275 27.5471 12.2667 28.0001 13.4076C28.4531 14.5485 28.6678 15.7677 28.6313 16.9921V17.0272H11.2387C11.7077 15.9204 12.4074 14.923 13.2926 14.0993H24.5244C23.9995 13.1091 23.1963 12.2885 22.2107 11.7355C21.1516 11.148 19.9543 10.845 18.7388 10.8568C16.5724 10.8949 14.491 11.6936 12.8696 13.1089C11.204 14.496 10.0869 16.4156 9.7139 18.5319C9.65007 18.9274 9.61768 19.3272 9.61704 19.7277C9.59727 20.5894 9.75634 21.4461 10.0845 22.2452C10.4127 23.0443 10.903 23.7691 11.5256 24.3751C12.1481 24.9812 12.8897 25.4557 13.705 25.7697C14.5202 26.0837 15.392 26.2306 16.2669 26.2013Z" fill="white"/>
<path d="M168.343 11.8173C169.219 11.7815 170.09 11.9612 170.877 12.34C171.665 12.7189 172.344 13.2849 172.853 13.9871L170.158 16.1993C170.101 16.0478 170.027 15.9029 169.938 15.7673C169.711 15.4399 169.404 15.1741 169.046 14.9947C168.687 14.8153 168.288 14.7281 167.886 14.7411C167.081 14.7467 166.306 15.0359 165.699 15.5562C164.988 16.1502 164.525 16.9827 164.4 17.8931C164.256 18.3688 164.217 18.869 164.284 19.3607C164.352 19.8524 164.524 20.3246 164.79 20.746C165.017 21.0729 165.325 21.3382 165.683 21.5175C166.042 21.6968 166.441 21.7844 166.843 21.7723C167.63 21.7691 168.387 21.4786 168.968 20.9571C169.213 20.7356 169.425 20.481 169.598 20.2007L171.697 22.4928C171.01 23.1957 170.184 23.7539 169.271 24.1333C168.358 24.5127 167.377 24.7056 166.386 24.7001C165.634 24.7464 164.881 24.6352 164.176 24.374C163.471 24.1129 162.83 23.7076 162.296 23.1848C161.386 22.2279 160.483 20.4518 161.22 17.479C161.577 15.8615 162.468 14.4057 163.752 13.3383C165.053 12.3167 166.679 11.7803 168.342 11.8238L168.343 11.8173ZM48.3905 11.8238C46.5118 11.8706 44.7264 12.6402 43.4169 13.9675L45.4228 16.0249C45.4965 15.933 45.5797 15.8489 45.6711 15.7738C45.9711 15.455 46.3337 15.1994 46.737 15.0227C47.1402 14.8461 47.5758 14.7519 48.0171 14.746C48.374 14.7341 48.729 14.8012 49.0561 14.9423C49.3831 15.0833 49.6739 15.2948 49.9071 15.5611C50.2163 15.9529 50.4076 16.4222 50.4592 16.9158H46.6115L46.2663 19.3342H50.215C50.052 19.858 49.7749 20.3403 49.4029 20.7477C49.1038 21.0663 48.7418 21.3216 48.3392 21.498C47.9366 21.6745 47.5017 21.7683 47.061 21.7739C46.5671 21.7683 46.0847 21.6265 45.6686 21.3646C45.2524 21.1026 44.9192 20.731 44.7067 20.292L42.0742 22.3298C42.1214 22.3991 42.2125 22.5328 42.258 22.5898C42.7607 23.2494 43.414 23.7833 44.1649 24.1484C44.9158 24.5136 45.7434 24.6998 46.5809 24.692V24.7026H46.686C48.3289 24.7473 49.9335 24.2096 51.2076 23.1873C52.0523 22.4874 52.7312 21.6139 53.1967 20.6283C53.6621 19.6426 53.9029 18.5685 53.9021 17.4815C53.9754 16.737 53.8932 15.9856 53.6607 15.2736C53.4283 14.5615 53.0504 13.9037 52.5503 13.3407C52.003 12.8152 51.3497 12.4088 50.6326 12.1479C49.9156 11.887 49.1508 11.7774 48.388 11.8262L48.3905 11.8238ZM54.5081 24.3464H57.9667L58.7399 19.4802H62.9411L62.1679 24.3464H65.6274L67.5761 12.1824H64.1166L63.4138 16.5604H59.2143L59.9154 12.1824H56.4568L54.5081 24.3464ZM68.0471 24.3464H75.4586L75.9329 21.4275H71.9801L72.2798 19.4802H75.8609L76.2914 16.8041H72.7086L72.9809 15.1005H76.9346L77.4089 12.1816H69.9966L68.0471 24.3464ZM78.106 24.3464H81.5646L82.2012 20.3319H83.9835C84.7015 20.3688 85.4191 20.2544 86.0886 19.9965C86.7581 19.7386 87.3641 19.343 87.866 18.8362C88.6618 17.9884 89.1101 16.8801 89.1243 15.7257C89.1857 14.929 88.9779 14.1346 88.5332 13.4662C87.6226 12.215 86.0547 12.1816 85.2608 12.1816H80.0547L78.106 24.3464ZM83.0828 14.8568H84.0713C84.2978 14.8265 84.5284 14.8502 84.7437 14.9258C84.9591 15.0014 85.1529 15.1267 85.3088 15.2913C85.4741 15.5311 85.5568 15.8168 85.5448 16.1064C85.5323 16.4974 85.3821 16.872 85.1201 17.166C84.9152 17.3409 84.6771 17.4742 84.4197 17.5581C84.1623 17.642 83.8905 17.675 83.6201 17.6551H82.6317L83.0828 14.8568ZM89.3196 24.3464H92.7791L94.2543 15.1014H98.208L98.6823 12.1824H91.2692L89.3196 24.3464ZM105.858 11.8344C104.877 11.8017 103.899 11.9643 102.983 12.3123C102.068 12.6604 101.232 13.1868 100.528 13.8601C99.8238 14.5334 99.2647 15.3396 98.8842 16.2307C98.5038 17.1217 98.3098 18.0791 98.3139 19.0457C98.2444 19.7937 98.336 20.5477 98.5828 21.2585C98.8296 21.9692 99.226 22.6206 99.7461 23.1702C100.331 23.6997 101.019 24.1069 101.768 24.3674C102.517 24.6278 103.312 24.736 104.105 24.6855C105.086 24.7172 106.063 24.5539 106.979 24.2053C107.895 23.8567 108.73 23.3298 109.434 22.6563C110.138 21.9828 110.697 21.1764 111.078 20.2853C111.459 19.3943 111.653 18.4368 111.649 17.4701C111.721 16.7208 111.632 15.965 111.387 15.2522C111.141 14.5394 110.745 13.8858 110.225 13.3342C109.64 12.8053 108.952 12.3987 108.203 12.139C107.454 11.8792 106.659 11.7717 105.866 11.823L105.858 11.8344ZM104.49 21.7674C104.119 21.7818 103.749 21.7163 103.406 21.5756C103.062 21.4348 102.755 21.2221 102.504 20.9522C102.038 20.346 101.819 19.5899 101.891 18.833C101.863 17.7098 102.267 16.6176 103.022 15.7755C103.342 15.4538 103.724 15.1975 104.145 15.0214C104.566 14.8453 105.019 14.7528 105.476 14.7492C105.848 14.7346 106.218 14.7999 106.561 14.9407C106.904 15.0815 107.212 15.2943 107.463 15.5643C107.929 16.1706 108.148 16.9266 108.076 17.6836C108.105 18.8076 107.701 19.9007 106.944 20.7428C106.624 21.0646 106.242 21.321 105.821 21.4971C105.4 21.6732 104.948 21.7656 104.49 21.769V21.7674ZM114.071 24.3407H117.529L119.005 15.0957H121.722L122.197 12.1767H113.301L112.826 15.0924H115.543L114.071 24.3407ZM122.528 24.3407H125.988L126.624 20.3262H128.406C129.124 20.363 129.842 20.2486 130.511 19.9907C131.181 19.7328 131.787 19.3373 132.289 18.8305C133.084 17.9826 133.532 16.8744 133.546 15.72C133.608 14.9234 133.4 14.129 132.956 13.4605C132.045 12.2093 130.477 12.1759 129.683 12.1759H124.476L122.528 24.3407ZM127.505 14.8511H128.492C128.719 14.8203 128.951 14.8437 129.167 14.9193C129.383 14.9949 129.577 15.1205 129.734 15.2856C129.899 15.5253 129.982 15.8112 129.969 16.1007C129.957 16.4919 129.807 16.8667 129.544 17.1603C129.339 17.3354 129.101 17.4687 128.844 17.5526C128.586 17.6366 128.314 17.6695 128.043 17.6494H127.055L127.505 14.8511ZM132.471 24.3407H136.217L137.279 22.2385H141.479L141.828 24.3407H145.464L143.019 12.1767H138.819L132.471 24.3407ZM140.445 15.0785L141.185 19.5617H138.362L140.445 15.0785ZM146.819 24.3407H150.278L151.051 19.4744H155.251L154.478 24.3407H157.942L159.891 12.1767H156.432L155.729 16.5547H151.528L152.231 12.1767H148.771L146.819 24.3407Z" fill="white"/>
</svg>
