<svg width="177" height="29" viewBox="0 0 177 29" fill="none" xmlns="http://www.w3.org/2000/svg">
<path d="M170.724 9.52405H168.018L166.494 19.0413H169.2L169.856 14.9491L172.128 19.0413H175.386L172.396 14.201L176.813 9.52405H173.64L170.087 13.5219L170.724 9.52405ZM155.763 19.0413H158.47L159.075 15.2341H162.363L161.759 19.0413H164.464L165.99 9.52405H163.283L162.734 12.9505H159.448L159.999 9.52405H157.292L155.763 19.0413ZM150.776 11.7943L151.359 15.3017H149.15L150.776 11.7943ZM144.538 19.0413H147.467L148.299 17.396H151.585L151.857 19.0413H154.702L152.789 9.52405H149.502L144.538 19.0413ZM139.043 17.1377L139.363 15.1397H140.44C140.786 15.1028 141.135 15.1695 141.442 15.3311C141.547 15.4182 141.629 15.5295 141.68 15.6553C141.731 15.781 141.749 15.9172 141.734 16.0517C141.738 16.2311 141.692 16.4081 141.601 16.5638C141.51 16.7195 141.379 16.848 141.22 16.9355C140.877 17.0976 140.497 17.1677 140.118 17.139L139.043 17.1377ZM136.035 19.0413H140.329C141.249 19.087 142.163 18.8697 142.96 18.4157C143.41 18.1406 143.782 17.7586 144.042 17.3048C144.303 16.851 144.443 16.34 144.45 15.8189C144.482 15.4515 144.425 15.0819 144.286 14.7398C144.146 14.3977 143.927 14.0926 143.646 13.849C142.949 13.3876 142.115 13.172 141.278 13.2374H139.664L139.894 11.8102H144.326L144.697 9.52596H137.558L136.035 19.0413Z" fill="#DA8D18"/>
<path d="M11.378 28.9968C8.98686 29.0235 6.6343 28.4023 4.57762 27.201C2.59244 26.02 1.00388 24.2902 0.00971482 22.2269L0 22.2064L0.0181343 22.1924L4.45327 18.7628C4.71344 19.4939 5.08466 20.1819 5.55429 20.8035L3.31405 22.5521C4.29906 23.8279 5.57907 24.8539 7.04771 25.5448C8.51635 26.2357 10.1312 26.5715 11.7582 26.5244C15.1544 26.4649 18.4174 25.2126 20.9588 22.9934C23.5705 20.8186 25.3221 17.8085 25.9068 14.4901C26.89 8.76856 23.2268 3.3563 17.4601 2.60443C16.8519 2.51058 16.2371 2.46389 15.6214 2.46477C13.8593 2.47366 12.1165 2.82676 10.4939 3.50361C8.78363 4.21929 7.21594 5.22829 5.86387 6.48364L7.56914 8.21567C6.91433 8.81442 6.33151 9.48522 5.83213 10.2149L2.50772 6.77125L2.49088 6.75403L2.50642 6.7349C4.17248 4.6709 6.26911 2.98312 8.65461 1.78561C10.929 0.630278 13.4477 0.0185688 16.0068 1.4706e-05C16.7486 -0.00104373 17.4894 0.0550334 18.2224 0.167733C21.1379 0.587735 23.8001 2.03385 25.7158 4.23825C26.8898 5.65737 27.7387 7.30947 28.2043 9.08152C28.6698 10.8536 28.7411 12.7037 28.4133 14.5054C27.7092 18.5018 25.6 22.127 22.4548 24.7465C19.394 27.4195 15.4641 28.928 11.3735 29" fill="#8A1812"/>
<path d="M12.7268 20.4982C13.6548 20.4935 14.5716 20.298 15.4185 19.9243C16.3072 19.5355 17.1127 18.9839 17.7921 18.2988C17.8258 18.2643 17.9003 18.1712 17.9715 18.0832L18.0739 17.9557H9.28195C8.7738 17.2951 8.47282 16.5026 8.41603 15.6758H22.0245L22.0135 15.7122C21.3537 17.782 20.0526 19.5967 18.2928 20.9019C16.5912 22.2104 14.5022 22.9359 12.3434 22.9681C11.9097 22.969 11.4766 22.9362 11.0481 22.8699C9.34468 22.6246 7.78925 21.7798 6.66996 20.4918C5.56128 19.1803 4.96418 17.5224 4.98605 15.8161C4.98665 15.3736 5.02238 14.9318 5.09292 14.4948C5.50454 12.1606 6.73654 10.0432 8.57341 8.51306C10.3616 6.95248 12.657 6.07206 15.0461 6.03044C16.0234 6.0116 16.9947 6.18479 17.9032 6.53989C18.8118 6.89499 19.6393 7.42487 20.3374 8.09854C21.0183 8.78337 21.552 9.59639 21.9064 10.489C22.2608 11.3816 22.4288 12.3354 22.4002 13.2933V13.3208H8.79297C9.15985 12.4549 9.70727 11.6745 10.3998 11.0301H19.1872C18.7765 10.2554 18.1481 9.61343 17.377 9.18074C16.5484 8.72114 15.6117 8.48407 14.6607 8.49329C12.9658 8.52314 11.3374 9.14799 10.0688 10.2553C8.76577 11.3404 7.89182 12.8423 7.59999 14.498C7.55005 14.8074 7.52471 15.1202 7.52421 15.4335C7.50875 16.1077 7.63319 16.7779 7.88994 17.4031C8.14669 18.0283 8.53032 18.5954 9.01737 19.0695C9.50441 19.5436 10.0846 19.9149 10.7224 20.1606C11.3603 20.4062 12.0423 20.5211 12.7268 20.4982Z" fill="#8A1812"/>
<path d="M131.705 9.2461C132.39 9.21812 133.071 9.35868 133.687 9.65508C134.303 9.95147 134.835 10.3944 135.233 10.9437L133.124 12.6744C133.08 12.5559 133.022 12.4426 132.952 12.3365C132.775 12.0803 132.535 11.8724 132.254 11.732C131.973 11.5917 131.661 11.5234 131.347 11.5336C130.717 11.538 130.111 11.7642 129.636 12.1713C129.079 12.636 128.717 13.2873 128.619 13.9996C128.507 14.3718 128.476 14.7631 128.529 15.1478C128.582 15.5325 128.716 15.9019 128.924 16.2316C129.102 16.4873 129.343 16.6949 129.624 16.8352C129.904 16.9755 130.216 17.044 130.531 17.0345C131.146 17.032 131.738 16.8048 132.193 16.3968C132.385 16.2235 132.551 16.0242 132.686 15.805L134.328 17.5982C133.791 18.1482 133.145 18.5848 132.431 18.8817C131.716 19.1785 130.948 19.3294 130.173 19.3252C129.585 19.3613 128.996 19.2744 128.444 19.07C127.893 18.8657 127.392 18.5486 126.974 18.1396C126.261 17.391 125.555 16.0014 126.132 13.6757C126.411 12.4102 127.108 11.2712 128.113 10.4361C129.13 9.63683 130.402 9.21719 131.703 9.25121L131.705 9.2461ZM37.8582 9.25121C36.3884 9.28784 34.9916 9.8899 33.9671 10.9284L35.5364 12.538C35.5941 12.4661 35.6592 12.4003 35.7307 12.3416C35.9654 12.0921 36.2491 11.8922 36.5646 11.7539C36.8801 11.6157 37.2208 11.542 37.5661 11.5374C37.8453 11.5282 38.1231 11.5806 38.379 11.691C38.6348 11.8014 38.8623 11.9668 39.0447 12.1751C39.2867 12.4816 39.4363 12.8488 39.4767 13.235H36.4664L36.1963 15.1271H39.2857C39.1581 15.5368 38.9413 15.9142 38.6503 16.2329C38.4163 16.4822 38.1331 16.6819 37.8181 16.82C37.5031 16.958 37.1629 17.0314 36.8181 17.0358C36.4317 17.0314 36.0543 16.9205 35.7287 16.7155C35.4031 16.5106 35.1424 16.2199 34.9762 15.8764L32.9166 17.4707C32.9535 17.5249 33.0248 17.6295 33.0604 17.6741C33.4537 18.1901 33.9648 18.6078 34.5523 18.8935C35.1398 19.1792 35.7873 19.3249 36.4425 19.3188V19.3271H36.5247C37.8101 19.3621 39.0654 18.9414 40.0622 18.1416C40.7231 17.594 41.2542 16.9106 41.6184 16.1395C41.9826 15.3683 42.171 14.528 42.1703 13.6776C42.2276 13.0951 42.1633 12.5073 41.9815 11.9502C41.7996 11.3931 41.5039 10.8785 41.1127 10.438C40.6845 10.0268 40.1734 9.70888 39.6124 9.50476C39.0514 9.30064 38.4531 9.2149 37.8563 9.25312L37.8582 9.25121ZM42.6444 19.0484H45.3503L45.9552 15.2412H49.2421L48.6372 19.0484H51.3437L52.8683 9.5318H50.1617L49.6119 12.957H46.3263L46.8749 9.5318H44.169L42.6444 19.0484ZM53.2368 19.0484H59.0353L59.4064 16.7647H56.3138L56.5483 15.2412H59.35L59.6868 13.1476H56.8837L57.0968 11.8148H60.19L60.5611 9.53116H54.762L53.2368 19.0484ZM61.1065 19.0484H63.8124L64.3104 15.9077H65.7048C66.2665 15.9365 66.828 15.847 67.3518 15.6452C67.8756 15.4434 68.3496 15.1339 68.7423 14.7374C69.3649 14.0741 69.7157 13.2071 69.7267 12.3039C69.7748 11.6806 69.6122 11.0591 69.2643 10.5362C68.5519 9.55731 67.3252 9.53116 66.7041 9.53116H62.631L61.1065 19.0484ZM65.0002 11.6241H65.7735C65.9507 11.6004 66.1311 11.6189 66.2996 11.6781C66.4681 11.7372 66.6197 11.8353 66.7417 11.964C66.8709 12.1517 66.9356 12.3752 66.9263 12.6017C66.9165 12.9077 66.799 13.2007 66.594 13.4308C66.4337 13.5676 66.2475 13.6718 66.0461 13.7375C65.8447 13.8032 65.6321 13.829 65.4205 13.8134H64.6472L65.0002 11.6241ZM69.8796 19.0484H72.5861L73.7402 11.8154H76.8335L77.2046 9.5318H71.4048L69.8796 19.0484ZM82.8184 9.2595C82.0509 9.23392 81.286 9.3611 80.5695 9.63342C79.853 9.90574 79.1997 10.3176 78.6487 10.8443C78.0976 11.3711 77.6602 12.0019 77.3625 12.699C77.0649 13.3961 76.9131 14.1451 76.9164 14.9013C76.862 15.4865 76.9337 16.0765 77.1267 16.6325C77.3198 17.1886 77.6299 17.6982 78.0368 18.1282C78.4943 18.5424 79.0323 18.8611 79.6184 19.0648C80.2045 19.2686 80.8265 19.3532 81.4467 19.3137C82.2144 19.3385 82.9793 19.2108 83.6957 18.938C84.4121 18.6652 85.0653 18.2531 85.6163 17.7262C86.1672 17.1992 86.6047 16.5683 86.9025 15.8712C87.2003 15.174 87.3523 14.4249 87.3494 13.6686C87.4059 13.0824 87.3358 12.4911 87.1439 11.9335C86.9519 11.3758 86.6423 10.8644 86.2355 10.4329C85.7776 10.0191 85.2393 9.70102 84.6532 9.4978C84.067 9.29459 83.445 9.21049 82.8249 9.25057L82.8184 9.2595ZM81.7485 17.0307C81.4579 17.042 81.1683 16.9907 80.8999 16.8806C80.6314 16.7705 80.3906 16.6041 80.1941 16.393C79.8296 15.9187 79.6586 15.3271 79.7149 14.7349C79.6927 13.8562 80.0087 13.0017 80.5996 12.3428C80.8502 12.0912 81.1489 11.8907 81.4784 11.7529C81.808 11.6151 82.1619 11.5428 82.5199 11.54C82.8105 11.5285 83.1001 11.5796 83.3686 11.6898C83.6371 11.7999 83.8779 11.9664 84.0742 12.1777C84.4389 12.652 84.6101 13.2434 84.5541 13.8357C84.5767 14.7151 84.2601 15.5702 83.6682 16.2291C83.4177 16.4809 83.1192 16.6815 82.7897 16.8192C82.4603 16.957 82.1064 17.0293 81.7485 17.0319V17.0307ZM89.2438 19.0439H91.9497L93.1038 11.811H95.2301L95.6012 9.52734H88.6415L88.2697 11.8084H90.396L89.2438 19.0439ZM95.8603 19.0439H98.5675L99.0648 15.9032H100.459C101.021 15.932 101.582 15.8425 102.106 15.6407C102.63 15.4389 103.104 15.1294 103.497 14.733C104.119 14.0696 104.47 13.2026 104.481 12.2995C104.529 11.6762 104.366 11.0547 104.019 10.5317C103.306 9.55284 102.08 9.5267 101.459 9.5267H97.3848L95.8603 19.0439ZM99.754 11.6197H100.527C100.704 11.5955 100.885 11.6138 101.054 11.673C101.224 11.7321 101.376 11.8304 101.498 11.9596C101.628 12.1471 101.692 12.3708 101.682 12.5973C101.673 12.9033 101.555 13.1966 101.35 13.4263C101.189 13.5632 101.003 13.6676 100.802 13.7332C100.6 13.7989 100.387 13.8246 100.176 13.8089H99.4023L99.754 11.6197ZM103.64 19.0439H106.57L107.401 17.3993H110.687L110.96 19.0439H113.805L111.892 9.52734H108.606L103.64 19.0439ZM109.878 11.7976L110.457 15.305H108.249L109.878 11.7976ZM114.865 19.0439H117.571L118.176 15.2368H121.462L120.857 19.0439H123.567L125.092 9.52734H122.386L121.836 12.9525H118.549L119.099 9.52734H116.392L114.865 19.0439Z" fill="#8A1812"/>
</svg>
